<svg xmlns="http://www.w3.org/2000/svg" xmlns:xlink="http://www.w3.org/1999/xlink" version="1.1" x="0px" y="0px" viewBox="0 0 60 75" enable-background="new 0 0 60 60" xml:space="preserve">
  <g>
    <path d="M0,0v60h60V0H0z M58,7v6v6v6v6v6v6v6v6v3h-3c0-0.55-0.45-1-1-1s-1,0.45-1,1h-4c0-0.55-0.45-1-1-1s-1,0.45-1,1h-4   c0-0.55-0.45-1-1-1s-1,0.45-1,1h-4c0-0.55-0.45-1-1-1s-1,0.45-1,1h-4c0-0.55-0.45-1-1-1s-1,0.45-1,1h-4c0-0.55-0.45-1-1-1   s-1,0.45-1,1h-4c0-0.55-0.45-1-1-1s-1,0.45-1,1h-4c0-0.55-0.45-1-1-1s-1,0.45-1,1H7c0-0.55-0.45-1-1-1s-1,0.45-1,1H2v-3v-6v-6v-6   v-6v-6v-6v-6V7V2h56V7z"/>
    <path d="M7,53h46v-1v-6v-6v-6v-6v-6v-6v-6V7h-1c0-0.55-0.45-1-1-1s-1,0.45-1,1h-4c0-0.55-0.45-1-1-1s-1,0.45-1,1h-4   c0-0.55-0.45-1-1-1s-1,0.45-1,1h-4c0-0.55-0.45-1-1-1s-1,0.45-1,1h-4c0-0.55-0.45-1-1-1s-1,0.45-1,1h-4c0-0.55-0.45-1-1-1   s-1,0.45-1,1h-4c0-0.55-0.45-1-1-1s-1,0.45-1,1h-4c0-0.55-0.45-1-1-1S8,6.45,8,7H7v3v6v6v6v6v6v6v6V53z M51,9v42h-2V9H51z M47,9v42   h-7V9H47z M38,9v42h-7V9H38z M29,9v42h-7V9H29z M20,9v42h-7V9H20z M11,9v42H9V9H11z"/>
    <circle cx="6" cy="4" r="1"/>
    <circle cx="3" cy="7" r="1"/>
    <circle cx="6" cy="10" r="1"/>
    <circle cx="3" cy="13" r="1"/>
    <circle cx="6" cy="16" r="1"/>
    <circle cx="3" cy="19" r="1"/>
    <circle cx="6" cy="22" r="1"/>
    <circle cx="3" cy="25" r="1"/>
    <circle cx="6" cy="28" r="1"/>
    <circle cx="3" cy="31" r="1"/>
    <circle cx="6" cy="34" r="1"/>
    <circle cx="3" cy="37" r="1"/>
    <circle cx="6" cy="40" r="1"/>
    <circle cx="3" cy="43" r="1"/>
    <circle cx="6" cy="46" r="1"/>
    <circle cx="3" cy="49" r="1"/>
    <circle cx="6" cy="52" r="1"/>
    <circle cx="3" cy="55" r="1"/>
    <circle cx="12" cy="4" r="1"/>
    <circle cx="9" cy="55" r="1"/>
    <circle cx="18" cy="4" r="1"/>
    <circle cx="15" cy="55" r="1"/>
    <circle cx="24" cy="4" r="1"/>
    <circle cx="21" cy="55" r="1"/>
    <circle cx="30" cy="4" r="1"/>
    <circle cx="27" cy="55" r="1"/>
    <circle cx="36" cy="4" r="1"/>
    <circle cx="33" cy="55" r="1"/>
    <circle cx="42" cy="4" r="1"/>
    <circle cx="39" cy="55" r="1"/>
    <circle cx="48" cy="4" r="1"/>
    <circle cx="45" cy="55" r="1"/>
    <circle cx="54" cy="4" r="1"/>
    <circle cx="54" cy="10" r="1"/>
    <circle cx="54" cy="16" r="1"/>
    <circle cx="54" cy="22" r="1"/>
    <circle cx="54" cy="28" r="1"/>
    <circle cx="54" cy="34" r="1"/>
    <circle cx="54" cy="40" r="1"/>
    <circle cx="54" cy="46" r="1"/>
    <circle cx="54" cy="52" r="1"/>
    <circle cx="51" cy="55" r="1"/>
    <circle cx="57" cy="7" r="1"/>
    <circle cx="57" cy="13" r="1"/>
    <circle cx="57" cy="19" r="1"/>
    <circle cx="57" cy="25" r="1"/>
    <circle cx="57" cy="31" r="1"/>
    <circle cx="57" cy="37" r="1"/>
    <circle cx="57" cy="43" r="1"/>
    <circle cx="57" cy="49" r="1"/>
    <circle cx="57" cy="55" r="1"/>
  </g>
</svg>
